<svg version="1.1" id="Layer_1" xmlns="http://www.w3.org/2000/svg" xmlns:xlink="http://www.w3.org/1999/xlink" x="0px" y="0px"
	 width="100%" viewBox="0 0 555 382" enable-background="new 0 0 555 382" xml:space="preserve">
<path fill="#EEEEEE" opacity="1.000000" stroke="none" 
	d="
M116.753632,307.210510 
	C102.466568,288.956360 91.554398,269.297852 84.787842,247.422104 
	C80.606316,233.903519 78.184471,220.125351 76.803780,206.003052 
	C75.358521,191.220276 76.584763,176.778366 78.741936,162.249390 
	C78.928726,160.991318 77.383430,158.988052 76.109222,158.077362 
	C64.655861,149.891296 52.572712,142.501175 41.669262,133.651672 
	C26.665014,121.473869 12.245804,108.356400 5.303835,89.497795 
	C-0.906081,72.627899 3.820261,53.978024 21.367140,43.948780 
	C32.567539,37.546989 44.658314,34.361031 57.525570,33.996330 
	C68.959579,33.672256 80.403099,32.875618 91.824150,33.124832 
	C103.780838,33.385731 115.715767,34.644543 128.406616,35.518581 
	C124.502701,38.881008 120.838043,41.557125 117.759979,44.791489 
	C111.899048,50.950008 105.786285,57.014690 100.926407,63.925823 
	C97.970879,68.128822 94.815689,68.009354 90.811340,67.942215 
	C82.610916,67.804749 74.395729,67.644814 66.207588,67.990509 
	C60.655827,68.224892 55.048134,68.903297 49.637836,70.138298 
	C45.591957,71.061859 41.821232,73.190819 37.152668,75.100121 
	C49.013306,97.819481 69.436371,110.098633 88.765373,124.132195 
	C114.706894,65.283455 158.025909,26.310646 220.897415,12.516623 
	C265.638184,2.700489 309.372101,8.615329 349.951416,31.502699 
	C426.443909,74.645691 461.608032,164.226852 434.855530,249.153763 
	C441.223297,250.049011 447.395966,251.355850 453.620697,251.688324 
	C462.792450,252.178177 472.022919,252.402328 481.188141,251.940857 
	C489.846100,251.504913 498.661194,250.886337 507.032074,248.825027 
	C519.656311,245.716324 519.317139,244.665771 511.689697,234.290817 
	C501.981720,221.085938 488.536285,211.900757 475.598114,202.237396 
	C472.317902,199.787445 469.129456,196.999878 465.458527,195.343002 
	C461.041199,193.349228 460.315247,190.080856 461.070038,186.220200 
	C463.427765,174.160690 461.177277,162.371979 459.242340,149.361542 
	C471.298462,157.072250 482.795227,164.229324 494.087555,171.695557 
	C509.165527,181.664734 523.020325,193.191467 534.999329,206.725220 
	C542.388855,215.073822 548.557373,224.303802 551.232849,235.546310 
	C555.107666,251.828598 548.004456,268.292023 533.348572,276.258636 
	C522.802002,281.991486 511.605408,285.234528 499.630402,286.039612 
	C492.747986,286.502319 485.886658,287.889648 479.021545,287.850494 
	C469.473602,287.796112 459.923065,286.898560 450.388733,286.165253 
	C442.840790,285.584717 435.314728,284.716309 427.781036,283.955353 
	C426.481140,283.824097 425.124176,283.785950 423.910522,283.366455 
	C420.958588,282.346069 419.344391,283.588348 417.922699,286.093842 
	C409.990509,300.072815 400.059326,312.612091 388.563507,323.720428 
	C364.720001,346.760315 336.518219,362.460449 304.402496,370.641846 
	C286.924683,375.094299 268.958527,377.019562 250.912292,375.882080 
	C211.892807,373.422668 176.523743,360.564392 145.969696,336.068756 
	C135.439682,327.626709 126.613319,317.059662 116.753632,307.210510 
M218.342499,189.107010 
	C224.916641,191.800949 231.490784,194.494888 238.557388,197.390625 
	C230.489990,207.226334 228.241821,218.645370 225.473129,231.432831 
	C187.574738,214.459259 150.408279,197.813507 113.489845,181.278824 
	C106.494049,222.400620 130.491882,292.343811 194.287521,324.115662 
	C263.183807,358.427765 342.047089,333.185028 380.796631,276.117859 
	C371.109314,273.872040 361.580933,271.663086 353.371155,269.759827 
	C356.338806,257.743896 359.088623,246.610062 361.817657,235.560303 
	C373.883911,238.173019 386.133240,240.825394 398.256256,243.450409 
	C428.034973,162.275696 383.687439,75.992264 304.197968,51.252392 
	C226.752228,27.148602 147.058502,68.736153 121.112694,143.470093 
	C152.320602,160.605392 184.502396,175.719528 218.342499,189.107010 
z"/>
<path fill="#EEEEEE" opacity="1.000000" stroke="none" 
	d="
M316.621338,197.282471 
	C331.290131,207.031509 338.408081,220.042892 338.167480,237.667801 
	C337.903473,257.004242 328.681854,270.341644 312.283478,278.726135 
	C290.397797,289.916260 262.291870,280.805969 251.132050,258.957123 
	C236.894974,231.083603 251.476868,197.910873 282.970428,191.407410 
	C294.216949,189.084991 306.037628,190.257339 316.621338,197.282471 
z"/>
</svg>